<svg width="51" height="53" viewBox="0 0 51 53" fill="none" xmlns="http://www.w3.org/2000/svg">
<path d="M41.4199 18.478C41.2654 18.9209 41.1037 19.3541 40.9375 19.7739L40.9189 19.8207L40.9658 19.8393C41.1387 19.9067 41.3104 19.9755 41.4814 20.0453V20.0444C43.4047 20.8562 45.4096 21.9233 46.7402 23.4731L46.7393 23.4741C47.6433 24.54 47.8091 25.4915 47.502 26.3393C47.1927 27.1924 46.4008 27.9523 45.3643 28.6205L45.0693 28.7963C42.1831 30.4688 38.3329 31.4358 34.4424 31.9741L33.6367 32.0786L33.6162 32.0815L33.6035 32.0971C32.3766 33.6415 31.0625 35.1298 29.6768 36.5366L29.582 36.6323L29.7158 36.6215C34.9544 36.1807 39.9727 34.9828 44.001 33.0258H44.002C45.9717 32.0295 47.9312 30.766 49.1934 28.8891C49.9808 27.7122 50.2692 26.4701 50.1055 25.2807C49.9416 24.0915 49.3259 22.958 48.3135 21.9975L47.9854 21.7075C46.3029 20.2809 44.0205 19.2244 41.4824 18.4467L41.4355 18.433L41.4199 18.478Z" fill="black" stroke="black" stroke-width="0.1"/>
<path d="M37.1361 5.9502C34.4248 5.97117 31.8507 7.332 29.6244 8.7002C26.4084 10.7176 23.6081 13.24 20.9486 15.9053C20.8106 16.0429 20.6738 16.1809 20.5375 16.3193C20.4654 16.392 20.3933 16.4655 20.3217 16.5391C17.0892 16.7449 13.4908 17.1829 10.1976 18.0303C7.10554 18.826 4.27777 19.9846 2.27576 21.6562L1.88611 21.9971V21.998C0.877123 22.9551 0.260415 24.0861 0.0950928 25.2754C-0.0701865 26.4651 0.216634 27.7091 1.00623 28.8887C2.11053 30.5309 3.7489 31.7043 5.46033 32.6387L6.19763 33.0254C6.4398 33.1432 6.68511 33.2572 6.93396 33.3691C7.0873 33.4385 7.24218 33.5065 7.39783 33.5732C8.03889 33.849 8.70099 34.1071 9.38123 34.3477C9.54098 34.4035 9.70203 34.4593 9.86462 34.5137C12.9733 35.5603 16.4456 36.2489 20.0326 36.582L20.0531 36.584L20.0687 36.5713C21.5323 35.3815 22.9987 34.0665 24.431 32.6699L24.517 32.5859L24.3969 32.584C20.4182 32.5315 15.5083 32.1881 11.1586 31.1025L10.7836 31.0059L9.89294 30.7598C9.59941 30.6739 9.30922 30.5839 9.02283 30.4902L8.64685 30.3643L8.64587 30.3633C7.25521 29.8855 5.96573 29.3109 4.8363 28.6211L4.46326 28.3691C3.61902 27.7694 2.97584 27.0959 2.70154 26.3486C2.39015 25.5002 2.54996 24.5446 3.45935 23.4736C4.79163 21.9229 6.79575 20.8576 8.71912 20.0449V20.0439C12.1219 18.6531 15.7434 17.8618 19.4095 17.4756C19.3589 17.5281 19.3078 17.5803 19.2572 17.6328L17.059 19.9375L17.058 19.9385C14.4477 22.765 11.7049 26.0839 9.50427 29.6201L9.46912 29.6768L9.53357 29.6953C10.0848 29.849 10.6571 29.9923 11.2484 30.126L11.2865 30.1348L11.3041 30.1006C12.9194 26.9739 14.9596 23.972 16.8832 21.5137L17.6986 20.4951C18.4653 19.5449 19.35 18.5665 20.3217 17.5967C20.3976 17.5202 20.4755 17.4431 20.5531 17.3672C21.6878 17.2725 22.8254 17.2157 23.9603 17.1895L25.1 17.1729C28.6962 17.192 32.3344 17.5061 35.8519 18.2959L35.8871 18.3037L35.9056 18.2715C36.0856 17.9601 36.2587 17.6511 36.4261 17.3447L36.4603 17.2832L36.391 17.2715C32.3519 16.591 28.2211 16.3909 25.1 16.3809L24.225 16.3887C23.3671 16.401 22.4479 16.4275 21.4867 16.4746C21.5194 16.4442 21.5522 16.4134 21.5853 16.3828C21.5938 16.3748 21.6042 16.3652 21.6146 16.3555H21.6156L21.6293 16.3428C25.1399 13.1104 29.4653 10.14 33.3558 8.75488V8.75391C34.1103 8.5004 35.113 8.21599 36.0824 8.14453C37.0536 8.07301 37.9806 8.21751 38.597 8.80859C39.2831 9.53877 39.3724 10.7236 39.2015 11.9541C39.0308 13.1827 38.6027 14.4401 38.2748 15.2949H38.2758C38.0898 15.7607 37.8872 16.2312 37.6693 16.7051L37.4457 17.1797V17.1807C37.3999 17.2777 37.3528 17.374 37.3051 17.4717C37.1447 17.799 36.9769 18.1281 36.8031 18.458L36.6527 18.7393C34.3389 23.0414 30.9313 27.4958 27.2601 31.3809C26.8723 31.7918 26.4811 32.197 26.0883 32.5938C24.6479 34.0492 23.1821 35.4074 21.7386 36.626C21.2881 37.0061 20.8405 37.3718 20.3959 37.7227C19.9673 38.0625 19.5415 38.3885 19.1205 38.6992L18.2133 39.3428C17.254 40.0068 16.1486 40.7163 15.0052 41.3164C13.4796 42.1171 11.8908 42.7198 10.4916 42.7637L10.3119 42.7627C9.88888 42.7475 9.4525 42.6423 9.15759 42.4229L9.15662 42.4219C8.80713 42.1807 8.53795 41.6678 8.4281 41.1895V41.1885C8.26844 40.5326 8.24965 39.8307 8.30115 39.1436L8.35291 38.6748C8.4923 37.5775 8.75571 36.4451 9.11658 35.2979L9.13025 35.2529L9.0863 35.2363C8.38057 34.9715 7.69449 34.6866 7.03064 34.3818L6.98376 34.3604L6.96423 34.4072C6.58975 35.2727 6.26189 36.1441 5.98865 37.0166L5.98767 37.0176C5.45162 38.8576 5.10274 40.9031 5.72986 42.8057V42.8066C6.30833 44.4778 7.45375 45.4442 8.83728 45.8965C10.2188 46.348 11.8361 46.2864 13.3636 45.9092V45.9102C15.9461 45.2799 18.3187 44.0441 20.5316 42.6211L21.4711 42.001C23.2475 40.7808 24.9248 39.4319 26.514 37.9883C26.7401 37.7829 26.9642 37.5753 27.1869 37.3662L27.85 36.7334C28.7743 35.8384 29.6694 34.9119 30.5375 33.9619C31.0163 33.4319 31.4874 32.8948 31.9496 32.3496C32.3062 31.9289 32.6576 31.503 33.0033 31.0723C34.7322 28.9216 36.3169 26.6563 37.7103 24.2715C38.4304 23.0349 39.253 21.4943 39.9867 19.8223C40.0369 19.7087 40.0865 19.5949 40.1351 19.4795C40.3068 19.0777 40.4727 18.6684 40.6302 18.2549C40.6754 18.1365 40.7205 18.017 40.764 17.8975L40.974 17.3047C41.9914 14.3319 42.4919 11.2166 41.5385 8.80859L41.3871 8.47168C40.5776 6.83696 38.9805 5.9502 37.1361 5.9502Z" fill="black" stroke="black" stroke-width="0.1"/>
</svg>
