<svg width="800" height="184" viewBox="0 0 800 184" fill="none" xmlns="http://www.w3.org/2000/svg">
<path d="M376.906 145.892H355.914L309.843 81.9872L291.266 100.75V145.892H274.361V15.8526H291.266V78.4575L353.128 15.8526H375.606L321.918 69.7263L376.906 145.892Z" fill="white"/>
<path d="M455.977 69.169C461.55 78.086 464.522 91.2757 463.779 104.465H393.372C393.743 124.9 402.289 134.746 419.751 134.746C435.542 134.746 444.087 128.058 446.317 113.94L462.479 115.24C458.392 136.975 443.53 148.122 419.937 148.122C405.633 148.122 394.486 143.849 386.498 134.56C378.696 125.829 375.166 113.754 375.166 99.2639C375.166 85.5168 379.067 73.4417 386.87 64.7105C395.044 55.4219 406.376 50.7776 419.751 50.7776C434.427 50.7776 448.36 57.0938 455.977 69.169ZM419.937 64.3389C409.534 64.3389 401.731 68.2401 398.016 74.3706C394.672 79.9437 393.557 86.2599 393.557 90.9042H446.688C446.502 85.8884 444.645 78.8291 441.672 74.3706C436.842 67.3112 429.969 64.3389 419.937 64.3389Z" fill="white"/>
<path d="M526.905 50.7776C551.613 50.7776 569.632 69.169 569.632 99.4497C569.632 128.802 552.541 148.122 527.462 148.122C514.458 148.122 504.612 143.663 497.553 133.817V183.047H480.834V53.0069H497.553V66.5682C504.427 55.9792 514.458 50.7776 526.905 50.7776ZM542.695 128.43C548.826 122.485 551.241 112.639 551.241 99.4497C551.241 77.7144 545.668 63.9674 523.933 63.9674C515.201 63.9674 508.514 66.7539 504.055 72.5128C499.411 78.4575 496.996 87.3745 496.996 99.2639C496.996 116.541 500.897 134.746 523.561 134.746C532.107 134.746 538.423 132.517 542.695 128.43Z" fill="white"/>
<path d="M603.639 145.892H586.919V15.8526H603.639V145.892Z" fill="white"/>
<path d="M701.666 69.169C707.239 78.086 710.212 91.2757 709.469 104.465H639.061C639.433 124.9 647.978 134.746 665.441 134.746C681.231 134.746 689.777 128.058 692.006 113.94L708.168 115.24C704.081 136.975 689.22 148.122 665.627 148.122C651.322 148.122 640.176 143.849 632.188 134.56C624.385 125.829 620.856 113.754 620.856 99.2639C620.856 85.5168 624.757 73.4417 632.559 64.7105C640.733 55.4219 652.065 50.7776 665.441 50.7776C680.117 50.7776 694.05 57.0938 701.666 69.169ZM665.627 64.3389C655.224 64.3389 647.421 68.2401 643.706 74.3706C640.362 79.9437 639.247 86.2599 639.247 90.9042H692.378C692.192 85.8884 690.334 78.8291 687.362 74.3706C682.532 67.3112 675.658 64.3389 665.627 64.3389Z" fill="white"/>
<path d="M772.037 50.9634C773.523 50.7776 777.053 50.7776 778.354 50.7776L777.982 66.5682C776.867 66.3824 775.381 66.3824 773.709 66.3824C756.061 66.3824 743.243 71.9555 743.243 101.865V145.892H726.523V53.0069H743.243V69.3547C745.844 60.4377 756.804 52.078 772.037 50.9634Z" fill="white"/>
<path d="M126.067 131.374C148.351 129.499 169.688 124.407 186.807 116.089C195.184 111.853 203.486 106.493 208.828 98.5491C215.481 88.6052 213.675 77.6066 205.113 69.4846C197.876 62.8116 187.623 57.9426 176.113 54.4161C175.454 56.3054 174.763 58.1521 174.054 59.942C174.791 60.2297 175.525 60.5209 176.255 60.8192C184.45 64.2783 193.022 68.8382 198.72 75.4758C206.491 84.6383 201.669 92.0003 192.816 97.7074C179.535 105.819 161.094 110.201 142.803 112.46C137.574 119.041 131.972 125.38 126.067 131.374Z" fill="white"/>
<path d="M4.03505 98.5491C9.37718 106.494 17.6824 111.853 26.0553 116.086C27.0846 116.587 28.1245 117.073 29.1823 117.549C29.834 117.844 30.4929 118.131 31.1553 118.416C33.8798 119.588 36.6933 120.681 39.5852 121.704C40.2654 121.942 40.9492 122.18 41.6401 122.411C54.8566 126.861 69.6223 129.791 84.8794 131.208C91.1048 126.147 97.3408 120.553 103.434 114.612C86.4892 114.388 65.5694 112.925 47.0286 108.298C46.4944 108.163 45.9601 108.028 45.4295 107.886C42.8724 107.218 40.3651 106.486 37.922 105.687C37.3842 105.513 36.8465 105.332 36.3158 105.148C30.3825 103.109 24.8765 100.655 20.0508 97.7075C11.2861 92.0608 6.32504 84.681 14.1424 75.4759C19.8478 68.8348 28.4166 64.2819 36.6114 60.8193C51.3023 54.8139 66.9441 51.4259 82.7675 49.8029C82.4149 50.1652 82.0659 50.531 81.7133 50.8968C78.5757 54.1534 75.463 57.4348 72.3539 60.7057C61.2458 72.7342 49.5786 86.8545 40.2191 101.895C42.5625 102.548 44.995 103.159 47.5094 103.727C55.3765 88.4988 65.6085 73.9701 74.7578 62.7974C78.0272 58.7453 81.7988 54.576 85.9407 50.4422C86.2826 50.0977 86.6316 49.7532 86.9806 49.4123C93.4624 48.8689 99.9656 48.6132 106.433 48.5777C121.754 48.6594 137.257 49.9947 152.251 53.3614C153.017 52.0368 153.754 50.7227 154.466 49.4194C137.286 46.525 119.714 45.6727 106.433 45.6301C101.604 45.6478 96.2119 45.7686 90.478 46.0598C90.7593 45.7934 91.0407 45.5342 91.3256 45.2714C91.3861 45.2146 91.4502 45.1577 91.5108 45.0974H91.5143C106.472 31.3251 124.91 18.6609 141.51 12.7514C147.945 10.5886 158.658 7.86471 164.039 13.0249C170.04 19.3925 165.517 33.5838 162.721 40.8712C161.664 43.5205 160.481 46.2054 159.185 48.9115C158.989 49.327 158.786 49.739 158.583 50.1545C157.899 51.5502 157.183 52.953 156.443 54.3594C156.233 54.7607 156.019 55.1584 155.802 55.5597C145.94 73.8955 131.424 92.8741 115.785 109.423C114.133 111.174 112.466 112.9 110.792 114.591C104.656 120.791 98.4093 126.577 92.2587 131.769C90.3391 133.388 88.4337 134.947 86.539 136.442C84.712 137.891 82.8957 139.28 81.1007 140.605C71.4421 147.608 56.2598 157.573 44.2471 157.95C42.1993 157.999 39.9235 157.562 38.4349 156.454C36.8856 155.385 35.7211 153.144 35.2474 151.081C34.56 148.258 34.4817 145.243 34.7025 142.302C35.2082 136.996 36.4226 131.481 38.182 125.888C35.1726 124.758 32.2486 123.544 29.4173 122.244C27.8254 125.923 26.4329 129.627 25.2718 133.335C22.9925 141.159 21.5216 149.813 24.1713 157.85C29.0505 171.945 43.46 174.122 56.4165 170.923C68.9456 167.865 80.3208 161.451 90.8626 154.313C98.4164 149.124 105.55 143.389 112.31 137.249C114.233 135.501 116.127 133.722 117.994 131.911C121.925 128.104 125.729 124.162 129.422 120.12C131.459 117.865 133.464 115.582 135.43 113.263C136.947 111.473 138.443 109.661 139.914 107.829C147.268 98.6805 154.007 89.0457 159.933 78.9029C162.996 73.6433 166.493 67.091 169.613 59.9812C169.827 59.4982 170.037 59.0152 170.243 58.5251C170.973 56.8169 171.678 55.0767 172.348 53.3188C172.54 52.8145 172.733 52.3067 172.918 51.7988C177.829 38.4101 180.518 24.1158 176.219 13.2593C173.067 5.47463 165.973 1.22363 157.675 1.22363C146.196 1.31242 135.284 7.0763 125.807 12.9006C112.135 21.4771 100.226 32.2023 88.9074 43.5454C88.3197 44.1314 87.7392 44.7174 87.1587 45.3069C86.8311 45.6372 86.5034 45.9674 86.1793 46.3013C58.6317 48.0486 24.8338 53.745 7.74962 69.4847C-0.783554 77.5783 -2.6355 88.584 4.03505 98.5491Z" fill="white"/>
</svg>
