<svg width="801" height="185" viewBox="0 0 801 185" fill="none" xmlns="http://www.w3.org/2000/svg">
<g clip-path="url(#clip0_3078_450)">
<path d="M457 68C449.5 56.5 435.7 49.6 420.2 49.6C406.4 49.6 394.7 54.6 386.5 63.9C378.7 72.7 374.5 84.9 374.5 99.2C374.5 114.5 378.4 126.6 386.1 135.3C394.2 144.7 405.4 149.3 420.4 149.3C432.5 149.3 442.3 146.4 449.7 140.8C457.2 135.1 462 126.6 464.1 115.5L464.3 114.2L445.8 112.7L445.6 113.8C444.5 120.6 442 125.5 437.8 128.8C433.6 132.1 427.8 133.7 420.1 133.7C411.6 133.7 405.5 131.4 401.4 126.6C397.4 122 395.3 115.1 394.9 105.7H465.2L465.3 104.6C466.1 91.3 463.1 77.8 457.3 68.6L457 68ZM395.2 89.7C395.4 84.5 396.9 79.1 399.5 74.9C403.1 68.9 410.8 65.4 420.4 65.4C425.3 65.4 429.4 66.1 432.7 67.7C436.1 69.2 438.8 71.6 441.1 74.9C443.9 79.1 445.5 85.3 445.8 89.6H395.2V89.7Z" fill="black"/>
<path d="M378.8 14.7H353.1L292.9 75.6V14.7H273.6V147.1H292.9V101.2L310.1 83.8L355.4 146.6L355.7 147.1H379.6L323.9 69.8L378.8 14.7Z" fill="black"/>
<path d="M605.2 14.7H586.2V147.1H605.2V14.7Z" fill="black"/>
<path d="M778.8 49.6C778.7 49.6 778.7 49.6 778.8 49.6C777.3 49.6 773.9 49.6 772.4 49.8C760.4 50.7 749.9 56.2 744.9 64.1V51.8H725.9V147H744.9V101.8C744.9 88.1 747.6 79 753.2 73.7C757.7 69.4 764.2 67.5 774.3 67.5C775.9 67.5 777.4 67.5 778.4 67.7L779.7 67.9L780.1 49.6H778.8Z" fill="black"/>
<path d="M702.7 68C695.2 56.5 681.4 49.6 665.9 49.6C652.1 49.6 640.4 54.6 632.2 63.9C624.4 72.7 620.2 84.9 620.2 99.2C620.2 114.5 624.1 126.6 631.8 135.3C639.9 144.7 651.1 149.3 666.1 149.3C678.2 149.3 688 146.4 695.4 140.8C702.9 135.1 707.7 126.6 709.8 115.5L710 114.2L691.5 112.7L691.3 113.8C690.2 120.6 687.7 125.5 683.5 128.8C679.3 132.1 673.5 133.7 665.8 133.7C657.3 133.7 651.2 131.4 647.1 126.6C643.1 122 641 115.1 640.6 105.7H711L711.1 104.6C711.9 91.3 708.9 77.8 703.1 68.6L702.7 68ZM686.4 74.4L686.8 75C689.6 79.2 691.2 85.4 691.5 89.7H640.8C641 84.5 642.5 79.1 645.1 74.9C648.7 68.9 656.4 65.4 666 65.4C670.9 65.4 675 66.1 678.3 67.7C681.6 69.2 684.2 71.4 686.4 74.4Z" fill="black"/>
<path d="M527.3 49.6C515.5 49.6 506 54.1 499.1 62.9V51.8H480.1V184.2H499.1V137.2C506.1 145.3 515.5 149.3 527.8 149.3C540.5 149.3 551.3 144.6 559.2 135.6C567 126.6 571.2 114.1 571.2 99.5C571.2 84.6 566.9 72 558.8 63C550.9 54.2 540 49.6 527.3 49.6ZM503.2 122.9C500.1 117.4 498.6 109.7 498.6 99.3C498.6 87.8 500.9 79.1 505.4 73.3C509.6 67.9 515.9 65.2 524.4 65.2C534.3 65.2 541.2 68.2 545.2 74.3C548.8 79.7 550.5 87.7 550.5 99.5C550.5 113.1 547.8 122.3 542.3 127.6C538.1 131.6 532 133.6 524 133.6C518.8 133.6 514.4 132.6 510.9 130.6C507.7 128.9 505.1 126.3 503.2 122.9Z" fill="black"/>
<path d="M213.5 83.3C212.8 78.2 210.1 73.3 205.8 69.2C199.1 63 189.3 57.9 176.6 54L176.2 53.9L176.1 54.3C175.5 56.1 174.8 58 174 59.8L173.8 60.2L174.2 60.4C174.9 60.7 175.7 61 176.4 61.3C186.8 65.7 193.9 70.3 198.6 75.7L198.7 75.8C202.2 79.9 203.3 84 201.9 87.8C200.7 91.1 197.7 94.3 192.9 97.4C181.3 104.5 164.5 109.4 143.1 112.1H142.9L142.8 112.2C137.6 118.8 131.9 125.1 126.1 131.1L125.3 131.9L126.4 131.8C149.6 129.8 170.7 124.5 187.3 116.5C194 113.1 203.6 107.6 209.5 98.8C212.9 93.9 214.2 88.5 213.5 83.3Z" fill="black"/>
<path d="M136.2 113.5C137.7 111.7 139.2 109.9 140.7 108.1C148.3 98.7 155 88.9 160.7 79.2C164.4 72.8 167.7 66.4 170.4 60.2L171 58.7C171.7 57 172.5 55.2 173.1 53.5C173.3 53 173.5 52.5 173.7 52C179.7 35.8 180.8 22.7 177 13.2C173.9 5.49999 166.8 0.899994 158.1 0.899994C152.2 0.899994 143.4 2.19999 127.8 11.5L126 12.6H125.9C111 22 98.3 33.9 89 43.2C88.4 43.8 87.8 44.4 87.2 45C86.9 45.3 86.6 45.6 86.3 45.9C70.1 46.9 55.6 49.1 43.2 52.2C27.5 56.2 15.5 61.9 7.70003 69.1C3.40003 73.2 0.700034 78.1 3.41684e-05 83.2C-0.699966 88.4 0.600034 93.8 3.90003 98.7C9.80003 107.5 19.4 113 26.1 116.4C26.6 116.7 27.1 116.9 27.7 117.1L29.3 117.8C30 118.1 30.6 118.4 31.3 118.7C34 119.9 36.8 121 39.8 122L41.9 122.7C54.9 127.1 69.5 130.1 85.2 131.5H85.4L85.5 131.4C91.6 126.4 97.9 120.8 104.1 114.8L104.8 114.1H103.8C88.8 113.9 66.9 112.7 47.5 107.8C47 107.7 46.4 107.5 45.9 107.4C43.3 106.7 40.8 106 38.4 105.2C37.9 105 37.3 104.8 36.8 104.7C30.6 102.6 25.2 100.1 20.6 97.3C15.8 94.2 12.8 91 11.6 87.7C10.2 83.9 11.3 79.8 14.8 75.7C21 68.5 30.5 64 37.1 61.2C50.4 55.8 65.5 52.1 82 50.3L81.8 50.6C80.2 52.2 78.7 53.9 77.1 55.5L72.4 60.4C59.2 74.7 48.3 88.6 40.2 101.7L39.9 102.2L40.4 102.4C42.7 103.1 45.2 103.7 47.7 104.2L48 104.3L48.2 104C55.1 90.7 64.8 76.1 75.4 63.1C78.7 59 82.4 54.9 86.6 50.8C86.9 50.5 87.2 50.2 87.5 49.9C93.6 49.4 100.1 49.1 106.8 49.1C123.7 49.2 138.6 50.8 152.5 53.9L152.8 54L153 53.7C153.7 52.4 154.5 51.1 155.2 49.7L155.5 49.2L155 49C136.8 45.9 118.8 45.2 106.9 45.2C102 45.2 97 45.3 92.1 45.6L92.3 45.4C108.6 30.4 126.8 18.6 142.1 13.1C146.5 11.6 150.3 10.8 153.7 10.5C158.4 10.2 162 11.1 164.2 13.3C166.7 16 167.6 20.4 166.7 26.5C166.1 30.6 164.8 35.3 162.8 40.7L162.4 41.7C161.5 44 160.4 46.3 159.3 48.7C159.1 49.1 158.9 49.4 158.8 49.8L158.2 51C157.9 51.7 157.5 52.4 157.1 53.1L155.9 55.3C146.6 72.5 132.5 91.6 115.9 109.1L114.7 110.4C113.4 111.7 112.2 113 111 114.3C104.9 120.5 98.7 126.2 92.5 131.5C90.5 133.2 88.6 134.7 86.8 136.2C85 137.6 83.2 139 81.4 140.4L79.5 141.7C73.8 145.8 68.6 149 63.9 151.5C56.4 155.4 50 157.5 44.8 157.6C42.6 157.7 40.5 157.1 39.2 156.2L38.9 156C37.7 155 36.6 153.1 36.1 151.1C35.5 148.6 35.3 145.8 35.6 142.5C36.1 137.4 37.2 131.9 39.1 126.2L39.2 125.8L38.8 125.7C35.8 124.6 32.9 123.4 30.1 122.1L29.7 121.9L29.5 122.3C28.1 125.6 26.8 128.8 25.8 132L25.3 133.4C23.4 139.8 21.3 149.3 24.2 158.2C26.5 164.9 31 169.3 37.6 171.5C40.7 172.5 43.8 172.9 46.8 172.9C50.6 172.9 54.2 172.3 57 171.6C67.8 169 78.4 163.8 91.6 154.9C98.9 149.9 106.1 144.2 113.1 137.8C114.5 136.5 116 135.1 117.4 133.8L118.8 132.4C122.6 128.7 126.4 124.8 130.2 120.6C132.3 118.1 134.3 115.8 136.2 113.5Z" fill="black"/>
</g>
<defs>
<clipPath id="clip0_3078_450">
<rect width="801" height="185" fill="white"/>
</clipPath>
</defs>
</svg>
